<svg width="24" height="24" viewBox="0 0 24 24" fill="none" xmlns="http://www.w3.org/2000/svg">
<path fill-rule="evenodd" clip-rule="evenodd" d="M12 24C18.6274 24 24 18.6274 24 12C24 5.37258 18.6274 0 12 0C5.37258 0 0 5.37258 0 12C0 18.6274 5.37258 24 12 24ZM13.5077 19.125V9.38358H10.4923V19.125H13.5077ZM10.6469 7.5729C10.9948 7.87468 11.4459 8.02557 12 8.02557C12.5541 8.02557 13.0052 7.87468 13.3531 7.5729C13.701 7.25905 13.875 6.86674 13.875 6.39597C13.875 5.96141 13.701 5.59927 13.3531 5.30956C13.0052 5.01985 12.5541 4.875 12 4.875C11.4459 4.875 10.9948 5.02589 10.6469 5.32767C10.299 5.62945 10.125 6.00365 10.125 6.45029C10.125 6.89692 10.299 7.27112 10.6469 7.5729Z" fill="#F5A621"/>
</svg>
